PathFileType	4	(X/Y/Z)	W08_1_OpenSim.trc																																																																																																																						
DataRate	CameraRate	NumFrames	NumMarkers	Units	OrigDataRate	OrigDataStartFrame	OrigNumFrames																																																																																																																		
100	100	4	40	mm	100	751	3000																																																																																																																		
Frame#	Time	R.ASIS			R.PSIS			S2			L.PSIS			L.ASIS			R.TH1			R.TH2			R.TH3			R.MKnee			R.Knee			R.SH1			R.SH2			R.SH3			R.SH4			R.Ankle			R.MAnkle			R.Heel			R.MT5			R.MT1			L.TH1			L.TH2			L.TH3			L.TH4			L.MKnee			L.Knee			L.SH1			L.SH2			L.SH3			L.Ankle			L.MAnkle			L.Heel			L.MT5			L.MT1			R.Acr			L.Acr			C7			T10			Clav			Sternum			R.Back		
		X1	Y1	Z1	X2	Y2	Z2	X3	Y3	Z3	X4	Y4	Z4	X5	Y5	Z5	X6	Y6	Z6	X7	Y7	Z7	X8	Y8	Z8	X9	Y9	Z9	X10	Y10	Z10	X11	Y11	Z11	X12	Y12	Z12	X13	Y13	Z13	X14	Y14	Z14	X15	Y15	Z15	X16	Y16	Z16	X17	Y17	Z17	X18	Y18	Z18	X19	Y19	Z19	X20	Y20	Z20	X21	Y21	Z21	X22	Y22	Z22	X23	Y23	Z23	X24	Y24	Z24	X25	Y25	Z25	X26	Y26	Z26	X27	Y27	Z27	X28	Y28	Z28	X29	Y29	Z29	X30	Y30	Z30	X31	Y31	Z31	X32	Y32	Z32	X33	Y33	Z33	X34	Y34	Z34	X35	Y35	Z35	X36	Y36	Z36	X37	Y37	Z37	X38	Y38	Z38	X39	Y39	Z39	X40	Y40	Z40
751	7.5	965.7722	1054.2815	-403.2647	772.4482	1056.8126	-486.68	763.9471	1050.8273	-532.0014	766.3012	1056.986	-581.9248	938.6742	1042.712	-697.1031	1012.8229	746.5735	-376.9593	935.3843	720.3121	-366.9452	969.2316	616.4891	-381.5738	1021.4039	507.8006	-508.9779	1029.399	512.5134	-393.0364	1063.5792	351.025	-390.1567	1080.8005	240.9336	-407.7304	983.5188	337.2128	-375.1905	1005.5299	226.3193	-384.5675	1042.6515	73.74	-397.5602	1079.4258	94.9793	-490.3963	986.158	35.2538	-458.1742	1159.0438	38.3919	-370.0867	1209.3982	41.2509	-457.4751	909.5644	740.7279	-704.7759	889.3982	633.9885	-696.9013	827.3703	751.4794	-717.7947	810.5577	643.7371	-702.3601	836.1238	484.5586	-583.864	826.493	497.0984	-693.9824	763.5591	375.7206	-713.1038	694.3123	420.2786	-713.5986	637.1461	326.4241	-710.9793	577.5538	117.7376	-715.2966	610.4139	121.3875	-617.2333	504.5464	103.4985	-659.4775	661.77	36.087	-730.2095	699.7206	45.8485	-626.8772	897.8569	1438.8525	-374.1828	871.5397	1437.8359	-702.5373	826.2525	1485.3092	-536.9577	800.5076	1158.1321	-541.7343	963.5259	1390.203	-545.8957	994.7416	1247.7795	-541.4332	753.1125	1383.3347	-451.2269
752	7.51	966.6635	1056.0499	-400.4883	773.3472	1058.0725	-484.1146	764.7382	1051.9519	-529.431	766.9341	1058.0839	-579.3509	939.505	1044.033	-694.1794	1012.6834	746.9358	-375.1083	935.0344	721.5413	-364.8089	967.8148	617.3369	-379.9254	1018.1623	508.3525	-507.8078	1027.0112	512.6943	-391.9155	1059.3009	350.6749	-389.5971	1075.2253	240.4286	-407.5506	979.1387	337.7455	-374.3337	999.8666	226.6171	-384.1218	1034.9829	73.877	-397.622	1071.679	94.9124	-490.5709	978.2155	35.2704	-458.0959	1151.0712	38.4389	-370.1395	1201.5426	40.8152	-457.5385	913.761	741.5501	-702.5676	895.3855	634.4227	-695.6165	831.3175	751.0984	-715.3277	816.3718	642.9274	-700.7549	845.218	483.4703	-583.5707	834.7935	496.8059	-693.6226	768.7181	377.1076	-713.2864	700.6213	423.5872	-712.6484	641.0797	331.2227	-710.2773	575.9185	123.7371	-716.1245	609.1436	126.2057	-618.3428	502.6034	113.5485	-660.0726	655.7064	37.7159	-730.792	693.516	46.3685	-627.0867	898.4916	1440.7578	-372.0427	871.3552	1438.8555	-700.2936	826.3735	1486.4543	-534.7339	801.1944	1159.3218	-539.0046	963.8166	1391.7238	-543.7093	995.3266	1249.4244	-539.02	753.7658	1384.5352	-448.5536
753	7.52	967.428	1057.7557	-397.7662	774.0676	1059.3361	-481.5301	765.33	1053.0991	-526.8218	767.3365	1059.2153	-576.7396	940.0409	1045.5051	-691.3149	1011.9771	747.1121	-373.3434	934.0837	722.6808	-362.8471	965.7358	618.069	-378.3987	1014.3788	508.7889	-506.6614	1023.9157	512.7648	-390.8174	1054.437	350.2805	-389.0285	1069.2256	239.9276	-407.3268	974.1452	338.156	-373.7057	993.7251	226.8337	-383.8496	1027.231	73.978	-397.7367	1063.8669	94.8477	-490.7549	970.2568	35.244	-458.0645	1143.0568	38.543	-370.2121	1193.6156	40.5758	-457.6261	918.2557	742.5031	-700.4624	901.8785	634.9852	-694.4598	835.6047	750.6804	-713.0196	822.7022	642.1056	-699.3509	855.048	482.4812	-583.363	843.8079	496.5718	-693.3807	774.8115	378.5885	-713.5282	707.9526	426.9454	-711.8476	646.0426	336.1705	-709.6816	575.1967	130.4043	-716.9507	608.6254	131.4904	-619.4236	501.6838	124.4815	-660.7529	650.0731	40.0365	-731.3317	687.7188	47.3042	-627.2978	899.1207	1442.8112	-369.9605	871.0862	1439.9956	-698.0521	826.4122	1487.6659	-532.5339	801.7608	1160.5841	-536.2342	964.0263	1393.3138	-541.5696	995.7897	1251.1356	-536.667	754.394	1385.8407	-445.8473
754	7.53	968.0814	1059.3635	-395.1655	774.6043	1060.5785	-478.9495	765.7223	1054.2347	-524.2004	767.5096	1060.3281	-574.1149	940.2445	1047.038	-688.5749	1010.7545	747.1492	-371.6265	932.6089	723.7376	-360.9957	963.0888	618.7212	-376.9045	1010.1655	509.1327	-505.4635	1020.1998	512.7543	-389.666	1049.0983	349.861	-388.3813	1062.8794	239.443	-407.009	968.6662	338.4627	-373.1339	987.214	226.9876	-383.6089	1019.4088	74.0371	-397.8565	1056.0104	94.787	-490.8936	962.288	35.1921	-458.0514	1135.0138	38.6589	-370.278	1185.6325	40.4642	-457.7165	922.9523	743.5686	-698.4897	908.7483	635.673	-693.4159	840.1404	750.226	-710.8756	829.4316	641.2911	-698.115	865.4357	481.6588	-583.1732	853.3895	496.4187	-693.2107	781.7404	380.1557	-713.7563	716.1959	430.3304	-711.1808	651.9423	341.2335	-709.1757	575.387	137.777	-717.7118	608.8029	137.2876	-620.3976	501.7814	136.2538	-661.4836	644.947	43.2074	-731.7833	682.3962	48.7723	-627.4896	899.7579	1444.9262	-367.9433	870.7283	1441.1852	-695.8241	826.3827	1488.8972	-530.3583	802.1988	1161.8716	-533.4699	964.1606	1394.9064	-539.4922	996.1345	1252.8438	-534.3929	755.0029	1387.1976	-443.1142
